<mxfile host="app.diagrams.net" agent="Mozilla/5.0 (Macintosh; Intel Mac OS X 10_15_7) AppleWebKit/537.36 (KHTML, like Gecko) Chrome/134.0.0.0 Safari/537.36" version="26.1.3">
  <diagram name="Overview" id="d5gEy8-BLkr8adyJ2Oli">
    <mxGraphModel dx="1530" dy="904" grid="1" gridSize="10" guides="1" tooltips="1" connect="1" arrows="1" fold="1" page="1" pageScale="1" pageWidth="827" pageHeight="1169" math="0" shadow="0">
      <root>
        <mxCell id="0" />
        <mxCell id="1" parent="0" />
        <mxCell id="CfH5yJDIyVk5vHO6dM0E-5" value="" style="edgeStyle=orthogonalEdgeStyle;rounded=0;orthogonalLoop=1;jettySize=auto;html=1;" parent="1" source="CfH5yJDIyVk5vHO6dM0E-2" target="CfH5yJDIyVk5vHO6dM0E-4" edge="1">
          <mxGeometry relative="1" as="geometry" />
        </mxCell>
        <mxCell id="wO8aZNIX2LMmA1Gr4mB2-2" value="&lt;h2&gt;MQTT&lt;/h2&gt;" style="edgeLabel;html=1;align=center;verticalAlign=middle;resizable=0;points=[];" parent="CfH5yJDIyVk5vHO6dM0E-5" vertex="1" connectable="0">
          <mxGeometry x="-0.2" y="-2" relative="1" as="geometry">
            <mxPoint as="offset" />
          </mxGeometry>
        </mxCell>
        <mxCell id="CfH5yJDIyVk5vHO6dM0E-2" value="&lt;h2&gt;&lt;font style=&quot;font-size: 23px;&quot;&gt;&amp;nbsp;Self-Driving Cars&lt;/font&gt;&lt;/h2&gt;&amp;nbsp;(Sending telemetry: location, battery, temp, etc.)&amp;nbsp;" style="rounded=0;whiteSpace=wrap;html=1;fillColor=#0050ef;fontColor=#ffffff;strokeColor=#001DBC;" parent="1" vertex="1">
          <mxGeometry x="110" y="50" width="300" height="130" as="geometry" />
        </mxCell>
        <mxCell id="CfH5yJDIyVk5vHO6dM0E-4" value="&lt;h2&gt;&lt;font style=&quot;font-size: 23px;&quot;&gt;&amp;nbsp;Telemetry Ingestion Service&lt;/font&gt;&lt;/h2&gt;- Receives telemetry data&lt;div&gt;-&amp;nbsp;Publishes messages to RabbitMQ&lt;/div&gt;" style="rounded=0;whiteSpace=wrap;html=1;fillColor=#cce5ff;strokeColor=#36393d;" parent="1" vertex="1">
          <mxGeometry x="310" y="250" width="300" height="130" as="geometry" />
        </mxCell>
        <mxCell id="CfH5yJDIyVk5vHO6dM0E-8" value="&lt;h2&gt;&lt;font style=&quot;font-size: 23px;&quot;&gt;&amp;nbsp;Traffic Simulator&lt;/font&gt;&lt;/h2&gt;- Generates high-volume sensor data for testing&amp;nbsp;&amp;nbsp;&lt;br&gt;- Simulates self-driving car behavior" style="ellipse;shape=cloud;whiteSpace=wrap;html=1;fillColor=#0050ef;strokeColor=#001DBC;fontColor=#ffffff;" parent="1" vertex="1">
          <mxGeometry x="420" y="10" width="390" height="200" as="geometry" />
        </mxCell>
        <mxCell id="iwOI1-6Wy1DFqGVwUgVn-3" value="" style="edgeStyle=orthogonalEdgeStyle;rounded=0;orthogonalLoop=1;jettySize=auto;html=1;" parent="1" source="CfH5yJDIyVk5vHO6dM0E-10" target="iwOI1-6Wy1DFqGVwUgVn-1" edge="1">
          <mxGeometry relative="1" as="geometry">
            <Array as="points">
              <mxPoint x="470" y="700" />
              <mxPoint x="470" y="700" />
            </Array>
          </mxGeometry>
        </mxCell>
        <mxCell id="CfH5yJDIyVk5vHO6dM0E-10" value="&lt;h2&gt;&lt;font style=&quot;font-size: 23px;&quot;&gt;&amp;nbsp;Telemetry Processor Service&lt;/font&gt;&lt;/h2&gt;&lt;div&gt;- Stores data in CitusDB&lt;/div&gt;&lt;div&gt;&amp;nbsp; &amp;nbsp;- Triggers anomaly events&lt;/div&gt;&lt;div&gt;- Indexing &amp;amp; partitioning&lt;/div&gt;" style="rounded=0;whiteSpace=wrap;html=1;fillColor=#cce5ff;strokeColor=#36393d;" parent="1" vertex="1">
          <mxGeometry x="310" y="540" width="300" height="130" as="geometry" />
        </mxCell>
        <mxCell id="iwOI1-6Wy1DFqGVwUgVn-4" value="" style="edgeStyle=orthogonalEdgeStyle;rounded=0;orthogonalLoop=1;jettySize=auto;html=1;" parent="1" source="CfH5yJDIyVk5vHO6dM0E-12" target="iwOI1-6Wy1DFqGVwUgVn-1" edge="1">
          <mxGeometry relative="1" as="geometry" />
        </mxCell>
        <mxCell id="U6AiqkIEml8v_UB4YjZV-4" style="edgeStyle=orthogonalEdgeStyle;rounded=0;orthogonalLoop=1;jettySize=auto;html=1;entryX=0;entryY=0.5;entryDx=0;entryDy=0;" edge="1" parent="1" source="CfH5yJDIyVk5vHO6dM0E-12" target="iwOI1-6Wy1DFqGVwUgVn-9">
          <mxGeometry relative="1" as="geometry" />
        </mxCell>
        <mxCell id="CfH5yJDIyVk5vHO6dM0E-12" value="&lt;h2&gt;&lt;font style=&quot;font-size: 25px;&quot;&gt;&amp;nbsp;Analytics Service&lt;/font&gt;&lt;/h2&gt;&lt;div&gt;&lt;span style=&quot;background-color: transparent; color: light-dark(rgb(0, 0, 0), rgb(255, 255, 255));&quot;&gt;- Uses materialized views&lt;/span&gt;&lt;/div&gt;&lt;div&gt;&lt;span style=&quot;background-color: transparent; color: light-dark(rgb(0, 0, 0), rgb(255, 255, 255));&quot;&gt;- Generates historical reports&lt;/span&gt;&lt;/div&gt;&lt;div&gt;&amp;nbsp; &amp;nbsp;- Query optimization (sharding)&lt;/div&gt;" style="rounded=0;whiteSpace=wrap;html=1;fillColor=#cce5ff;strokeColor=#36393d;" parent="1" vertex="1">
          <mxGeometry x="310" y="930" width="300" height="130" as="geometry" />
        </mxCell>
        <mxCell id="CfH5yJDIyVk5vHO6dM0E-20" value="" style="edgeStyle=orthogonalEdgeStyle;rounded=0;orthogonalLoop=1;jettySize=auto;html=1;" parent="1" source="CfH5yJDIyVk5vHO6dM0E-17" target="CfH5yJDIyVk5vHO6dM0E-19" edge="1">
          <mxGeometry relative="1" as="geometry" />
        </mxCell>
        <mxCell id="CfH5yJDIyVk5vHO6dM0E-17" value="&lt;h2&gt;&lt;font style=&quot;font-size: 23px;&quot;&gt;Emergency Alerting Service&lt;/font&gt;&lt;/h2&gt;- Listens for alerts from alerts.queue&lt;br&gt;- Sends notifications (SMS, email, logs)&lt;br&gt;- Executes commands (e.g., STOP car if overheating)&lt;br&gt;- Publishes commands to commands.queue&amp;nbsp;" style="rounded=0;whiteSpace=wrap;html=1;fillColor=#cce5ff;strokeColor=#36393d;" parent="1" vertex="1">
          <mxGeometry x="860" y="540" width="340" height="130" as="geometry" />
        </mxCell>
        <mxCell id="CfH5yJDIyVk5vHO6dM0E-19" value="&lt;h2&gt;&lt;font style=&quot;font-size: 25px;&quot;&gt;&amp;nbsp;Car Control System&lt;/font&gt;&lt;/h2&gt;- Reads commands from commands.queue&lt;br&gt;- Controls vehicle actions (via API, MQTT, etc.)" style="rounded=0;whiteSpace=wrap;html=1;fillColor=#cce5ff;strokeColor=#36393d;" parent="1" vertex="1">
          <mxGeometry x="860" y="725" width="340" height="130" as="geometry" />
        </mxCell>
        <mxCell id="CfH5yJDIyVk5vHO6dM0E-21" value="" style="shape=flexArrow;endArrow=classic;html=1;rounded=0;entryX=0.5;entryY=0;entryDx=0;entryDy=0;fillColor=#cdeb8b;strokeColor=#36393d;" parent="1" target="CfH5yJDIyVk5vHO6dM0E-10" edge="1">
          <mxGeometry width="50" height="50" relative="1" as="geometry">
            <mxPoint x="459.44" y="380" as="sourcePoint" />
            <mxPoint x="459.44" y="540" as="targetPoint" />
          </mxGeometry>
        </mxCell>
        <mxCell id="CfH5yJDIyVk5vHO6dM0E-22" value="&lt;h1&gt;Kafka&lt;/h1&gt;" style="edgeLabel;html=1;align=center;verticalAlign=middle;resizable=0;points=[];" parent="CfH5yJDIyVk5vHO6dM0E-21" vertex="1" connectable="0">
          <mxGeometry x="-0.2205" y="-2" relative="1" as="geometry">
            <mxPoint x="2" y="22" as="offset" />
          </mxGeometry>
        </mxCell>
        <mxCell id="CfH5yJDIyVk5vHO6dM0E-30" value="" style="shape=flexArrow;endArrow=classic;html=1;rounded=0;exitX=1;exitY=0.5;exitDx=0;exitDy=0;entryX=0;entryY=0.5;entryDx=0;entryDy=0;fillColor=#cdeb8b;strokeColor=#36393d;" parent="1" source="CfH5yJDIyVk5vHO6dM0E-10" edge="1" target="CfH5yJDIyVk5vHO6dM0E-17">
          <mxGeometry width="50" height="50" relative="1" as="geometry">
            <mxPoint x="720" y="580" as="sourcePoint" />
            <mxPoint x="850" y="605" as="targetPoint" />
          </mxGeometry>
        </mxCell>
        <mxCell id="CfH5yJDIyVk5vHO6dM0E-31" value="&lt;h1&gt;Kafka&lt;/h1&gt;" style="edgeLabel;html=1;align=center;verticalAlign=middle;resizable=0;points=[];" parent="CfH5yJDIyVk5vHO6dM0E-30" vertex="1" connectable="0">
          <mxGeometry x="-0.2205" y="-2" relative="1" as="geometry">
            <mxPoint x="14" y="-2" as="offset" />
          </mxGeometry>
        </mxCell>
        <mxCell id="iwOI1-6Wy1DFqGVwUgVn-5" value="" style="edgeStyle=orthogonalEdgeStyle;rounded=0;orthogonalLoop=1;jettySize=auto;html=1;" parent="1" edge="1">
          <mxGeometry relative="1" as="geometry">
            <mxPoint x="450" y="750" as="sourcePoint" />
            <mxPoint x="450" y="670" as="targetPoint" />
          </mxGeometry>
        </mxCell>
        <mxCell id="iwOI1-6Wy1DFqGVwUgVn-1" value="&lt;b&gt;&lt;font style=&quot;font-size: 20px;&quot;&gt;CitusDb&lt;/font&gt;&lt;/b&gt;" style="shape=cylinder3;whiteSpace=wrap;html=1;boundedLbl=1;backgroundOutline=1;size=15;fillColor=#d5e8d4;strokeColor=#82b366;gradientColor=#97d077;" parent="1" vertex="1">
          <mxGeometry x="400" y="725" width="120" height="140" as="geometry" />
        </mxCell>
        <mxCell id="iwOI1-6Wy1DFqGVwUgVn-12" value="" style="edgeStyle=orthogonalEdgeStyle;rounded=0;orthogonalLoop=1;jettySize=auto;html=1;" parent="1" source="iwOI1-6Wy1DFqGVwUgVn-6" target="iwOI1-6Wy1DFqGVwUgVn-9" edge="1">
          <mxGeometry relative="1" as="geometry" />
        </mxCell>
        <mxCell id="iwOI1-6Wy1DFqGVwUgVn-6" value="Admin" style="shape=umlActor;verticalLabelPosition=bottom;verticalAlign=top;html=1;outlineConnect=0;fillColor=#ffcd28;gradientColor=#ffa500;strokeColor=#d79b00;" parent="1" vertex="1">
          <mxGeometry x="1260" y="927.5" width="70" height="135" as="geometry" />
        </mxCell>
        <mxCell id="iwOI1-6Wy1DFqGVwUgVn-9" value="&lt;h2&gt;&lt;span style=&quot;background-color: transparent; color: light-dark(rgb(0, 0, 0), rgb(255, 255, 255));&quot;&gt;&lt;font style=&quot;font-size: 35px;&quot;&gt;&amp;nbsp;API&lt;/font&gt;&lt;/span&gt;&lt;/h2&gt;" style="rounded=0;whiteSpace=wrap;html=1;fillColor=#cce5ff;strokeColor=#36393d;" parent="1" vertex="1">
          <mxGeometry x="860" y="930" width="340" height="130" as="geometry" />
        </mxCell>
        <mxCell id="U6AiqkIEml8v_UB4YjZV-5" style="edgeStyle=orthogonalEdgeStyle;rounded=0;orthogonalLoop=1;jettySize=auto;html=1;entryX=0;entryY=0.5;entryDx=0;entryDy=0;" edge="1" parent="1">
          <mxGeometry relative="1" as="geometry">
            <mxPoint x="860" y="1020" as="sourcePoint" />
            <mxPoint x="610" y="1020" as="targetPoint" />
          </mxGeometry>
        </mxCell>
        <mxCell id="U6AiqkIEml8v_UB4YjZV-7" style="edgeStyle=orthogonalEdgeStyle;rounded=0;orthogonalLoop=1;jettySize=auto;html=1;entryX=0.587;entryY=-0.007;entryDx=0;entryDy=0;entryPerimeter=0;" edge="1" parent="1" source="CfH5yJDIyVk5vHO6dM0E-8" target="CfH5yJDIyVk5vHO6dM0E-4">
          <mxGeometry relative="1" as="geometry">
            <Array as="points">
              <mxPoint x="615" y="220" />
              <mxPoint x="486" y="220" />
            </Array>
          </mxGeometry>
        </mxCell>
        <mxCell id="U6AiqkIEml8v_UB4YjZV-8" value="&lt;b&gt;&lt;font style=&quot;font-size: 16px;&quot;&gt;MQTT&lt;/font&gt;&lt;/b&gt;" style="edgeLabel;html=1;align=center;verticalAlign=middle;resizable=0;points=[];" vertex="1" connectable="0" parent="U6AiqkIEml8v_UB4YjZV-7">
          <mxGeometry x="-0.1613" y="-3" relative="1" as="geometry">
            <mxPoint as="offset" />
          </mxGeometry>
        </mxCell>
      </root>
    </mxGraphModel>
  </diagram>
</mxfile>
